<svg width="120" height="31" viewBox="0 0 120 31" fill="none" xmlns="http://www.w3.org/2000/svg">
<rect width="120" height="30.7895" rx="15.3947" fill="url(#paint0_linear_3_184)"/>
<path d="M22.9362 18.6121C22.1252 19.3412 21.0545 19.7453 19.8794 19.7453C17.2891 19.7453 15.3868 17.843 15.3868 15.2313C15.3868 12.6195 17.2285 10.7974 19.8794 10.7974C21.034 10.7974 22.1252 11.1819 22.9567 11.911L23.5219 12.397L26.0331 9.88674L25.4046 9.3197C23.9269 7.98543 21.9651 7.23682 19.8785 7.23682C15.2229 7.23682 11.8421 10.5962 11.8421 15.2117C11.8421 19.8077 15.304 23.2872 19.8785 23.2872C22.0042 23.2872 23.9865 22.5386 25.4455 21.1829L26.0526 20.6159L23.5023 18.1075L22.9362 18.6121Z" fill="white"/>
<path d="M19.7565 12.5795C20.4707 12.5795 21.1556 12.8632 21.6606 13.3682C22.1656 13.8731 22.4493 14.5581 22.4493 15.2722C22.4493 15.9864 22.1656 16.6713 21.6606 17.1763C21.1556 17.6813 20.4707 17.965 19.7565 17.965C19.0424 17.9648 18.3576 17.6811 17.8528 17.1761C17.3479 16.6711 17.0642 15.9863 17.0642 15.2722C17.0642 14.5581 17.3479 13.8733 17.8528 13.3683C18.3576 12.8634 19.0424 12.5796 19.7565 12.5795Z" fill="#FF3D2E"/>
<path d="M35.2964 20.12C34.9524 20.12 34.5884 20.084 34.2044 20.012C33.8204 19.94 33.4764 19.816 33.1724 19.64C33.0444 19.56 32.9524 19.468 32.8964 19.364C32.8484 19.252 32.8284 19.144 32.8364 19.04C32.8524 18.928 32.8924 18.832 32.9564 18.752C33.0284 18.672 33.1164 18.62 33.2204 18.596C33.3324 18.572 33.4524 18.592 33.5804 18.656C33.9004 18.808 34.2004 18.916 34.4804 18.98C34.7604 19.036 35.0364 19.064 35.3084 19.064C35.6924 19.064 35.9764 19 36.1604 18.872C36.3524 18.736 36.4484 18.56 36.4484 18.344C36.4484 18.16 36.3844 18.02 36.2564 17.924C36.1364 17.82 35.9524 17.744 35.7044 17.696L34.5044 17.468C34.0084 17.372 33.6284 17.192 33.3644 16.928C33.1084 16.656 32.9804 16.308 32.9804 15.884C32.9804 15.5 33.0844 15.168 33.2924 14.888C33.5084 14.608 33.8044 14.392 34.1804 14.24C34.5564 14.088 34.9884 14.012 35.4764 14.012C35.8284 14.012 36.1564 14.052 36.4604 14.132C36.7724 14.204 37.0724 14.32 37.3604 14.48C37.4804 14.544 37.5604 14.628 37.6004 14.732C37.6484 14.836 37.6604 14.944 37.6364 15.056C37.6124 15.16 37.5644 15.256 37.4924 15.344C37.4204 15.424 37.3284 15.476 37.2164 15.5C37.1124 15.516 36.9924 15.492 36.8564 15.428C36.6084 15.3 36.3684 15.208 36.1364 15.152C35.9124 15.096 35.6964 15.068 35.4884 15.068C35.0964 15.068 34.8044 15.136 34.6124 15.272C34.4284 15.408 34.3364 15.588 34.3364 15.812C34.3364 15.98 34.3924 16.12 34.5044 16.232C34.6164 16.344 34.7884 16.42 35.0204 16.46L36.2204 16.688C36.7404 16.784 37.1324 16.96 37.3964 17.216C37.6684 17.472 37.8044 17.816 37.8044 18.248C37.8044 18.832 37.5764 19.292 37.1204 19.628C36.6644 19.956 36.0564 20.12 35.2964 20.12ZM41.8998 20.12C41.2358 20.12 40.6638 19.996 40.1838 19.748C39.7038 19.5 39.3318 19.148 39.0678 18.692C38.8118 18.236 38.6838 17.696 38.6838 17.072C38.6838 16.464 38.8078 15.932 39.0558 15.476C39.3118 15.02 39.6598 14.664 40.0998 14.408C40.5478 14.144 41.0558 14.012 41.6238 14.012C42.0398 14.012 42.4118 14.08 42.7398 14.216C43.0758 14.352 43.3598 14.548 43.5918 14.804C43.8318 15.06 44.0118 15.372 44.1318 15.74C44.2598 16.1 44.3238 16.508 44.3238 16.964C44.3238 17.108 44.2718 17.22 44.1678 17.3C44.0718 17.372 43.9318 17.408 43.7478 17.408H39.8958V16.544H43.2678L43.0758 16.724C43.0758 16.356 43.0198 16.048 42.9078 15.8C42.8038 15.552 42.6478 15.364 42.4398 15.236C42.2398 15.1 41.9878 15.032 41.6838 15.032C41.3478 15.032 41.0598 15.112 40.8198 15.272C40.5878 15.424 40.4078 15.644 40.2798 15.932C40.1598 16.212 40.0998 16.548 40.0998 16.94V17.024C40.0998 17.68 40.2518 18.172 40.5558 18.5C40.8678 18.82 41.3238 18.98 41.9238 18.98C42.1318 18.98 42.3638 18.956 42.6198 18.908C42.8838 18.852 43.1318 18.76 43.3638 18.632C43.5318 18.536 43.6798 18.496 43.8078 18.512C43.9358 18.52 44.0358 18.564 44.1078 18.644C44.1878 18.724 44.2358 18.824 44.2518 18.944C44.2678 19.056 44.2438 19.172 44.1798 19.292C44.1238 19.412 44.0238 19.516 43.8798 19.604C43.5998 19.78 43.2758 19.912 42.9078 20C42.5478 20.08 42.2118 20.12 41.8998 20.12ZM48.4037 20.12C47.7397 20.12 47.1677 19.996 46.6877 19.748C46.2077 19.5 45.8357 19.148 45.5717 18.692C45.3157 18.236 45.1877 17.696 45.1877 17.072C45.1877 16.464 45.3117 15.932 45.5597 15.476C45.8157 15.02 46.1637 14.664 46.6037 14.408C47.0517 14.144 47.5597 14.012 48.1277 14.012C48.5437 14.012 48.9157 14.08 49.2437 14.216C49.5797 14.352 49.8637 14.548 50.0957 14.804C50.3357 15.06 50.5157 15.372 50.6357 15.74C50.7637 16.1 50.8277 16.508 50.8277 16.964C50.8277 17.108 50.7757 17.22 50.6717 17.3C50.5757 17.372 50.4357 17.408 50.2517 17.408H46.3997V16.544H49.7717L49.5797 16.724C49.5797 16.356 49.5237 16.048 49.4117 15.8C49.3077 15.552 49.1517 15.364 48.9437 15.236C48.7437 15.1 48.4917 15.032 48.1877 15.032C47.8517 15.032 47.5637 15.112 47.3237 15.272C47.0917 15.424 46.9117 15.644 46.7837 15.932C46.6637 16.212 46.6037 16.548 46.6037 16.94V17.024C46.6037 17.68 46.7557 18.172 47.0597 18.5C47.3717 18.82 47.8277 18.98 48.4277 18.98C48.6357 18.98 48.8677 18.956 49.1237 18.908C49.3877 18.852 49.6357 18.76 49.8677 18.632C50.0357 18.536 50.1837 18.496 50.3117 18.512C50.4397 18.52 50.5397 18.564 50.6117 18.644C50.6917 18.724 50.7397 18.824 50.7557 18.944C50.7717 19.056 50.7477 19.172 50.6837 19.292C50.6277 19.412 50.5277 19.516 50.3837 19.604C50.1037 19.78 49.7797 19.912 49.4117 20C49.0517 20.08 48.7157 20.12 48.4037 20.12ZM56.0174 20.084C55.7774 20.084 55.5934 20.012 55.4654 19.868C55.3374 19.724 55.2734 19.524 55.2734 19.268V14.864C55.2734 14.6 55.3374 14.4 55.4654 14.264C55.5934 14.12 55.7774 14.048 56.0174 14.048C56.2574 14.048 56.4414 14.12 56.5694 14.264C56.7054 14.4 56.7734 14.6 56.7734 14.864V19.268C56.7734 19.524 56.7094 19.724 56.5814 19.868C56.4534 20.012 56.2654 20.084 56.0174 20.084ZM56.0174 12.932C55.7374 12.932 55.5174 12.864 55.3574 12.728C55.2054 12.584 55.1294 12.388 55.1294 12.14C55.1294 11.884 55.2054 11.688 55.3574 11.552C55.5174 11.416 55.7374 11.348 56.0174 11.348C56.3054 11.348 56.5254 11.416 56.6774 11.552C56.8294 11.688 56.9054 11.884 56.9054 12.14C56.9054 12.388 56.8294 12.584 56.6774 12.728C56.5254 12.864 56.3054 12.932 56.0174 12.932ZM59.076 20.096C58.836 20.096 58.652 20.032 58.524 19.904C58.396 19.768 58.332 19.576 58.332 19.328V14.792C58.332 14.544 58.396 14.356 58.524 14.228C58.652 14.1 58.832 14.036 59.064 14.036C59.296 14.036 59.476 14.1 59.604 14.228C59.732 14.356 59.796 14.544 59.796 14.792V15.608L59.664 15.308C59.84 14.884 60.112 14.564 60.48 14.348C60.856 14.124 61.28 14.012 61.752 14.012C62.224 14.012 62.612 14.1 62.916 14.276C63.22 14.452 63.448 14.72 63.6 15.08C63.752 15.432 63.828 15.88 63.828 16.424V19.328C63.828 19.576 63.764 19.768 63.636 19.904C63.508 20.032 63.324 20.096 63.084 20.096C62.844 20.096 62.656 20.032 62.52 19.904C62.392 19.768 62.328 19.576 62.328 19.328V16.496C62.328 16.04 62.24 15.708 62.064 15.5C61.896 15.292 61.632 15.188 61.272 15.188C60.832 15.188 60.48 15.328 60.216 15.608C59.96 15.88 59.832 16.244 59.832 16.7V19.328C59.832 19.84 59.58 20.096 59.076 20.096ZM72.6893 20.12C71.8093 20.12 71.0533 19.944 70.4213 19.592C69.7973 19.232 69.3173 18.728 68.9813 18.08C68.6453 17.424 68.4773 16.652 68.4773 15.764C68.4773 15.1 68.5733 14.504 68.7653 13.976C68.9573 13.44 69.2333 12.984 69.5933 12.608C69.9533 12.224 70.3933 11.932 70.9133 11.732C71.4413 11.524 72.0333 11.42 72.6893 11.42C73.1293 11.42 73.5613 11.476 73.9853 11.588C74.4093 11.7 74.7813 11.86 75.1013 12.068C75.2693 12.172 75.3813 12.3 75.4373 12.452C75.4933 12.596 75.5053 12.74 75.4733 12.884C75.4413 13.02 75.3733 13.136 75.2693 13.232C75.1733 13.328 75.0493 13.384 74.8973 13.4C74.7533 13.408 74.5933 13.356 74.4173 13.244C74.1693 13.084 73.9013 12.968 73.6133 12.896C73.3253 12.824 73.0333 12.788 72.7373 12.788C72.1693 12.788 71.6893 12.904 71.2973 13.136C70.9053 13.368 70.6093 13.704 70.4093 14.144C70.2093 14.584 70.1093 15.124 70.1093 15.764C70.1093 16.396 70.2093 16.936 70.4093 17.384C70.6093 17.832 70.9053 18.172 71.2973 18.404C71.6893 18.636 72.1693 18.752 72.7373 18.752C73.0413 18.752 73.3413 18.716 73.6373 18.644C73.9333 18.564 74.2133 18.444 74.4773 18.284C74.6533 18.18 74.8093 18.136 74.9453 18.152C75.0893 18.16 75.2093 18.208 75.3053 18.296C75.4013 18.384 75.4653 18.496 75.4973 18.632C75.5293 18.76 75.5213 18.896 75.4733 19.04C75.4253 19.176 75.3293 19.296 75.1853 19.4C74.8653 19.632 74.4813 19.812 74.0333 19.94C73.5933 20.06 73.1453 20.12 72.6893 20.12ZM78.7696 20.12C78.1056 20.12 77.6056 19.932 77.2696 19.556C76.9336 19.172 76.7656 18.612 76.7656 17.876V12.2C76.7656 11.952 76.8296 11.764 76.9576 11.636C77.0856 11.508 77.2696 11.444 77.5096 11.444C77.7496 11.444 77.9336 11.508 78.0616 11.636C78.1976 11.764 78.2656 11.952 78.2656 12.2V17.804C78.2656 18.172 78.3416 18.444 78.4936 18.62C78.6536 18.796 78.8776 18.884 79.1656 18.884C79.2296 18.884 79.2896 18.884 79.3456 18.884C79.4016 18.876 79.4576 18.868 79.5136 18.86C79.6256 18.844 79.7016 18.876 79.7416 18.956C79.7816 19.028 79.8016 19.18 79.8016 19.412C79.8016 19.612 79.7616 19.768 79.6816 19.88C79.6016 19.992 79.4696 20.06 79.2856 20.084C79.2056 20.092 79.1216 20.1 79.0336 20.108C78.9456 20.116 78.8576 20.12 78.7696 20.12ZM82.7216 20.12C82.2336 20.12 81.8296 20.032 81.5096 19.856C81.1896 19.672 80.9496 19.4 80.7896 19.04C80.6376 18.68 80.5616 18.232 80.5616 17.696V14.792C80.5616 14.536 80.6256 14.348 80.7536 14.228C80.8816 14.1 81.0656 14.036 81.3056 14.036C81.5456 14.036 81.7296 14.1 81.8576 14.228C81.9936 14.348 82.0616 14.536 82.0616 14.792V17.72C82.0616 18.136 82.1456 18.444 82.3136 18.644C82.4816 18.844 82.7496 18.944 83.1176 18.944C83.5176 18.944 83.8456 18.808 84.1016 18.536C84.3576 18.256 84.4856 17.888 84.4856 17.432V14.792C84.4856 14.536 84.5496 14.348 84.6776 14.228C84.8056 14.1 84.9896 14.036 85.2296 14.036C85.4696 14.036 85.6536 14.1 85.7816 14.228C85.9176 14.348 85.9856 14.536 85.9856 14.792V19.328C85.9856 19.84 85.7416 20.096 85.2536 20.096C85.0216 20.096 84.8416 20.032 84.7136 19.904C84.5856 19.768 84.5216 19.576 84.5216 19.328V18.416L84.6896 18.776C84.5216 19.208 84.2656 19.54 83.9216 19.772C83.5856 20.004 83.1856 20.12 82.7216 20.12ZM90.2348 20.12C89.7148 20.12 89.2788 20.032 88.9268 19.856C88.5828 19.68 88.3268 19.424 88.1588 19.088C87.9908 18.744 87.9068 18.32 87.9068 17.816V15.26H87.2828C87.0908 15.26 86.9428 15.212 86.8388 15.116C86.7348 15.012 86.6828 14.872 86.6828 14.696C86.6828 14.512 86.7348 14.372 86.8388 14.276C86.9428 14.18 87.0908 14.132 87.2828 14.132H87.9068V13.04C87.9068 12.792 87.9708 12.604 88.0988 12.476C88.2348 12.348 88.4228 12.284 88.6628 12.284C88.9028 12.284 89.0868 12.348 89.2148 12.476C89.3428 12.604 89.4068 12.792 89.4068 13.04V14.132H90.6788C90.8708 14.132 91.0188 14.18 91.1228 14.276C91.2268 14.372 91.2788 14.512 91.2788 14.696C91.2788 14.872 91.2268 15.012 91.1228 15.116C91.0188 15.212 90.8708 15.26 90.6788 15.26H89.4068V17.732C89.4068 18.116 89.4908 18.404 89.6588 18.596C89.8268 18.788 90.0988 18.884 90.4748 18.884C90.6108 18.884 90.7308 18.872 90.8348 18.848C90.9388 18.824 91.0308 18.808 91.1108 18.8C91.2068 18.792 91.2868 18.824 91.3508 18.896C91.4148 18.96 91.4468 19.096 91.4468 19.304C91.4468 19.464 91.4188 19.608 91.3628 19.736C91.3148 19.856 91.2228 19.94 91.0868 19.988C90.9828 20.02 90.8468 20.048 90.6788 20.072C90.5108 20.104 90.3628 20.12 90.2348 20.12ZM94.8057 20.12C94.1897 20.12 93.6537 19.996 93.1977 19.748C92.7417 19.492 92.3897 19.132 92.1417 18.668C91.8937 18.204 91.7697 17.66 91.7697 17.036C91.7697 16.564 91.8377 16.144 91.9737 15.776C92.1177 15.4 92.3217 15.084 92.5857 14.828C92.8497 14.564 93.1697 14.364 93.5457 14.228C93.9217 14.084 94.3417 14.012 94.8057 14.012C95.0697 14.012 95.3537 14.048 95.6577 14.12C95.9697 14.192 96.2617 14.312 96.5337 14.48C96.6617 14.56 96.7457 14.656 96.7857 14.768C96.8257 14.88 96.8337 14.996 96.8097 15.116C96.7857 15.228 96.7337 15.328 96.6537 15.416C96.5817 15.496 96.4897 15.548 96.3777 15.572C96.2657 15.588 96.1417 15.56 96.0057 15.488C95.8297 15.384 95.6497 15.308 95.4657 15.26C95.2817 15.204 95.1057 15.176 94.9377 15.176C94.6737 15.176 94.4417 15.22 94.2417 15.308C94.0417 15.388 93.8697 15.508 93.7257 15.668C93.5897 15.82 93.4857 16.012 93.4137 16.244C93.3417 16.476 93.3057 16.744 93.3057 17.048C93.3057 17.64 93.4457 18.108 93.7257 18.452C94.0137 18.788 94.4177 18.956 94.9377 18.956C95.1057 18.956 95.2777 18.932 95.4537 18.884C95.6377 18.836 95.8217 18.76 96.0057 18.656C96.1417 18.584 96.2617 18.56 96.3657 18.584C96.4777 18.608 96.5697 18.664 96.6417 18.752C96.7137 18.832 96.7577 18.932 96.7737 19.052C96.7897 19.164 96.7737 19.276 96.7257 19.388C96.6857 19.5 96.6057 19.592 96.4857 19.664C96.2217 19.824 95.9417 19.94 95.6457 20.012C95.3497 20.084 95.0697 20.12 94.8057 20.12ZM98.4979 20.096C98.2579 20.096 98.0739 20.032 97.9459 19.904C97.8179 19.768 97.7539 19.576 97.7539 19.328V12.2C97.7539 11.952 97.8179 11.764 97.9459 11.636C98.0739 11.508 98.2579 11.444 98.4979 11.444C98.7379 11.444 98.9219 11.508 99.0499 11.636C99.1859 11.764 99.2539 11.952 99.2539 12.2V15.308H99.0859C99.2619 14.884 99.5339 14.564 99.9019 14.348C100.278 14.124 100.702 14.012 101.174 14.012C101.646 14.012 102.034 14.1 102.338 14.276C102.642 14.452 102.87 14.72 103.022 15.08C103.174 15.432 103.25 15.88 103.25 16.424V19.328C103.25 19.576 103.186 19.768 103.058 19.904C102.93 20.032 102.746 20.096 102.506 20.096C102.266 20.096 102.078 20.032 101.942 19.904C101.814 19.768 101.75 19.576 101.75 19.328V16.496C101.75 16.04 101.662 15.708 101.486 15.5C101.318 15.292 101.054 15.188 100.694 15.188C100.254 15.188 99.9019 15.328 99.6379 15.608C99.3819 15.88 99.2539 16.244 99.2539 16.7V19.328C99.2539 19.84 99.0019 20.096 98.4979 20.096Z" fill="white"/>
<defs>
<linearGradient id="paint0_linear_3_184" x1="120" y1="30.7895" x2="-0.727199" y2="3.17978" gradientUnits="userSpaceOnUse">
<stop stop-color="#003166"/>
<stop offset="1" stop-color="#007AFF"/>
</linearGradient>
</defs>
</svg>
