<svg width="92" height="80" viewBox="0 0 92 80" fill="none" xmlns="http://www.w3.org/2000/svg">
<path fill-rule="evenodd" clip-rule="evenodd" d="M79.9597 28.9232L71.9565 40.4346C70.37 42.1831 69.2119 42.9427 68.1537 42.9427C67.0599 42.9427 65.8222 42.5427 64.4762 41.7544C62.017 40.3133 59.3012 37.6957 56.174 33.7491C55.2242 32.5524 54.2345 31.2268 53.1475 29.6973C52.7412 29.1271 52.34 28.5543 51.8744 27.8822L51.071 26.7403L59.6279 14.7581C61.9467 11.4651 65.7663 9.41854 69.5979 9.41854C72.2155 9.41854 74.5274 10.1006 76.4898 11.4525C76.5041 11.4633 76.5211 11.4717 76.5363 11.4827L77.0282 11.77C80.461 14.1863 82.2438 18.0731 82.1271 21.9767C82.1262 24.4006 81.4286 26.8354 79.9597 28.9232ZM45.6767 70.7356C42.519 70.7356 38.6603 68.0382 35.6051 63.6956V63.6965L26.541 50.6591L19.4315 40.4346L15.0837 34.1804L11.4281 28.9232C9.95937 26.8354 9.26265 24.4006 9.26095 21.9767C9.14504 18.0731 10.9279 14.1863 14.3607 11.77L14.8526 11.4827C14.8677 11.4719 14.8839 11.4633 14.8982 11.4525L14.938 11.4171C17.0095 9.9971 19.3766 9.24668 21.7892 9.24668C25.7892 9.24668 29.5193 11.1551 31.7676 14.3531L41.0189 27.4848L42.182 29.1776C42.3675 29.453 42.5884 29.7824 42.6882 29.9263L43.9734 31.791C44.5296 32.597 45.002 33.2733 45.4802 33.9454C45.553 34.049 45.6217 34.1416 45.6944 34.2426C46.9084 35.9398 47.9988 37.3833 49.0976 38.7427C54.6163 45.5636 59.7905 49.4834 64.847 50.6591L55.7829 63.6965V63.6956C52.7284 68.0382 48.869 70.7356 45.7113 70.7356H45.6767ZM91.3503 20.3782C90.9885 15.0621 88.8009 10.2464 85.2313 6.63419C84.9477 6.34867 84.6684 6.08502 84.3839 5.8273C83.9868 5.47185 83.7295 5.25801 83.4696 5.04734C83.4002 4.99189 83.3334 4.93542 83.2639 4.88069C82.9489 4.63224 82.6264 4.39132 82.2955 4.16054C82.2904 4.15721 81.8154 3.82869 81.8154 3.82869C80.8656 3.16586 79.8692 2.5915 78.839 2.09721C76.5363 0.992207 74.0559 0.31418 71.4907 0.0901978C70.8644 0.0354691 70.2336 0 69.5988 0C65.7782 0 62.0915 1.01494 58.8787 2.85255C56.2071 4.38119 53.8611 6.47753 52.0496 9.05122L45.6953 18.0823L39.3384 9.05122C37.5268 6.47753 35.181 4.38119 32.5093 2.85255C29.2965 1.01494 25.6098 0 21.7901 0C21.1544 0 20.5245 0.0354691 19.8971 0.0901978C17.3322 0.31418 14.8526 0.992207 12.549 2.09721C11.5188 2.5915 10.5223 3.16586 9.57249 3.82869L9.12972 4.13447C8.76157 4.39132 8.43981 4.63224 8.12401 4.88069C8.05464 4.93542 7.98782 4.99189 7.91915 5.04734C7.6584 5.25801 7.4019 5.47185 7.15221 5.69337C6.71965 6.08501 6.44031 6.34867 6.17104 6.62072C2.58758 10.2464 0.400105 15.0621 0.0478443 20.2012C0.0190449 20.699 0.00982437 21.0216 0.00471709 21.3442C0.00216345 21.5118 -0.00124447 21.6778 0.000457953 21.8453C0.00471402 22.2773 0.0267027 22.7078 0.0555021 23.1365C0.070682 23.3486 0.0902612 23.5601 0.112251 23.7722C0.131687 23.9626 0.156229 24.1521 0.179921 24.3417C0.608365 27.6296 1.81127 30.8645 3.85064 33.7625L28.0258 69.5245C28.5313 70.2438 29.0671 70.9276 29.6217 71.5838C29.6911 71.6655 29.757 71.7522 29.8265 71.8331C29.9171 71.9384 30.0127 72.0352 30.1042 72.1388C34.475 77.048 40.1267 80 45.4294 80H45.9586C51.2622 80 56.913 77.048 61.2838 72.1388C61.3752 72.0352 61.471 71.9384 61.5615 71.8331C61.6317 71.7522 61.6978 71.6655 61.7663 71.5838C62.3218 70.9276 62.8567 70.2438 63.3629 69.5245L87.5368 33.7625C89.5769 30.8645 90.7799 27.6296 91.2084 24.3417C91.2311 24.1521 91.2566 23.9626 91.2751 23.7722C91.2978 23.5601 91.3176 23.3486 91.3318 23.1365C91.3616 22.7078 91.3843 22.2773 91.3871 21.8453C91.3886 21.6778 91.3857 21.5118 91.3843 21.3442C91.3786 21.0216 91.3687 20.699 91.3503 20.3782Z" fill="white"/>
</svg>
